<?xml version="1.0" encoding="UTF-8"?>
<!DOCTYPE svg PUBLIC "-//W3C//DTD SVG 1.1//EN" "http://www.w3.org/Graphics/SVG/1.1/DTD/svg11.dtd">
<!-- Creator: CorelDRAW 2018 (64-Bit) -->
<svg xmlns="http://www.w3.org/2000/svg" xml:space="preserve" width="6.9926mm" height="6.35mm" version="1.1" style="shape-rendering:geometricPrecision; text-rendering:geometricPrecision; image-rendering:optimizeQuality; fill-rule:evenodd; clip-rule:evenodd"
viewBox="0 0 10.13 9.2"
 xmlns:xlink="http://www.w3.org/1999/xlink">
 <defs>
  <style type="text/css">
   <![CDATA[
    .fil0 {fill:#414042}
   ]]>
  </style>
 </defs>
 <g id="Слой_x0020_1">
  <metadata id="CorelCorpID_0Corel-Layer"/>
  <g id="_798788064">
   <g id="_2209654022400">
    <g id="_2960595359936">
     <g>
      <path class="fil0" d="M8.74 2.82l-6.35 0c-0.11,0 -0.18,0.07 -0.18,0.18 0,0.11 0.07,0.18 0.18,0.18l6.35 0c0.11,0 0.18,-0.07 0.18,-0.18 0,-0.11 -0.07,-0.18 -0.18,-0.18z"/>
      <path class="fil0" d="M8.74 3.79l-6.35 0c-0.11,0 -0.18,0.07 -0.18,0.18 0,0.11 0.07,0.18 0.18,0.18l6.35 0c0.11,0 0.18,-0.07 0.18,-0.18 0,-0.11 -0.07,-0.18 -0.18,-0.18z"/>
      <path class="fil0" d="M8.74 4.75l-6.35 0c-0.11,0 -0.18,0.07 -0.18,0.18 0,0.11 0.07,0.18 0.18,0.18l6.35 0c0.11,0 0.18,-0.07 0.18,-0.18 0,-0.11 -0.07,-0.18 -0.18,-0.18z"/>
      <path class="fil0" d="M6.21 5.78l-3.82 0c-0.11,0 -0.18,0.07 -0.18,0.18 0,0.11 0.07,0.18 0.18,0.18l3.82 0c0.11,0 0.18,-0.07 0.18,-0.18 0,-0.11 -0.07,-0.18 -0.18,-0.18z"/>
      <path class="fil0" d="M9.06 1.14l0 0c0,-0.64 -0.5,-1.14 -1.14,-1.14l-6.78 0c-0.64,0 -1.14,0.5 -1.14,1.14l0 4.35c0,0.61 0.47,1.07 1.03,1.14l0 0c0,0.64 0.5,1.14 1.14,1.14l4.79 0c0.07,0 0.14,0.04 0.18,0.07l1.25 1.25c0.07,0.07 0.14,0.11 0.25,0.11 0.04,0 0.11,0 0.14,-0.04 0.14,-0.04 0.22,-0.18 0.22,-0.32l0 -1.07c0.64,0 1.14,-0.54 1.14,-1.14l0 -4.35c0,-0.61 -0.47,-1.07 -1.03,-1.14l-0.04 0zm-8.03 1.14l0 4c-0.4,-0.07 -0.67,-0.4 -0.67,-0.78l0 -4.35c0,-0.43 0.36,-0.82 0.82,-0.82l6.78 0c0.43,0 0.82,0.36 0.82,0.82l-6.57 0c-0.64,0 -1.14,0.5 -1.14,1.14l-0.04 0zm8.74 4.35c0,0.43 -0.36,0.82 -0.82,0.82 -0.18,0 -0.32,0.14 -0.32,0.32l0 1.07c0,0 0,0 0,0 0,0 0,0 0,0 0,0 0,0 0,0l-1.25 -1.25c-0.11,-0.11 -0.25,-0.18 -0.43,-0.18l-4.79 0c-0.43,0 -0.82,-0.36 -0.82,-0.82l0 -4.35c0,-0.43 0.36,-0.82 0.82,-0.82l6.78 0c0.43,0 0.82,0.36 0.82,0.82l0 4.35 0 0 0 0.04z"/>
     </g>
    </g>
   </g>
  </g>
 </g>
</svg>
