<?xml version="1.0" encoding="UTF-8"?>
<!DOCTYPE svg PUBLIC "-//W3C//DTD SVG 1.1//EN" "http://www.w3.org/Graphics/SVG/1.1/DTD/svg11.dtd">
<!-- Creator: CorelDRAW 2018 (64-Bit) -->
<svg xmlns="http://www.w3.org/2000/svg" xml:space="preserve" width="4.2334mm" height="4.2334mm" version="1.1" style="shape-rendering:geometricPrecision; text-rendering:geometricPrecision; image-rendering:optimizeQuality; fill-rule:evenodd; clip-rule:evenodd"
viewBox="0 0 9.78 9.78"
 xmlns:xlink="http://www.w3.org/1999/xlink">
 <defs>
  <style type="text/css">
   <![CDATA[
    .fil0 {fill:black}
   ]]>
  </style>
 </defs>
 <g id="Слой_x0020_1">
  <metadata id="CorelCorpID_0Corel-Layer"/>
  <path class="fil0" d="M1.16 0.46c-0.39,0 -0.7,0.32 -0.7,0.7l0 7.46c0,0.39 0.32,0.7 0.7,0.7l3.5 0 0 -3.04 -0.93 0c-0.14,0 -0.23,-0.12 -0.23,-0.23l0 -1.65c0,-0.14 0.12,-0.23 0.23,-0.23l0.93 0 0 -1.16c0,-1.02 0.83,-1.88 1.88,-1.88l1.65 0c0.14,0 0.23,0.12 0.23,0.23l0 1.65c0,0.14 -0.12,0.23 -0.23,0.23l-0.7 0c-0.25,0 -0.46,0.21 -0.46,0.46l0 0.46 1.16 0c0.07,0 0.14,0.02 0.19,0.09 0.05,0.07 0.07,0.14 0.05,0.21l-0.46 1.62c-0.02,0.09 -0.12,0.16 -0.23,0.16l-0.7 0 0 3.04 1.65 0c0.39,0 0.7,-0.32 0.7,-0.7l0 -7.46c0,-0.39 -0.32,-0.7 -0.7,-0.7l-7.46 0 -0.05 0.02zm-1.16 0.7c0,-0.65 0.53,-1.16 1.16,-1.16l7.46 0c0.65,0 1.16,0.53 1.16,1.16l0 7.46c0,0.65 -0.53,1.16 -1.16,1.16l-1.88 0c-0.14,0 -0.23,-0.09 -0.23,-0.23l0 -3.5c0,-0.14 0.12,-0.23 0.23,-0.23l0.76 0 0.32 -1.16 -1.09 0c-0.14,0 -0.23,-0.12 -0.23,-0.23l0 -0.7c0,-0.51 0.42,-0.93 0.93,-0.93l0.46 0 0 -1.16 -1.39 0c-0.76,0 -1.39,0.63 -1.39,1.39l0 1.39c0,0.14 -0.12,0.23 -0.23,0.23l-0.93 0 0 1.16 0.93 0c0.14,0 0.23,0.12 0.23,0.23l0 3.5c0,0.14 -0.12,0.23 -0.23,0.23l-3.73 0c-0.65,0 -1.16,-0.53 -1.16,-1.16l0 -7.46 -0 0z"/>
 </g>
</svg>
