<?xml version="1.0" encoding="UTF-8"?>
<!DOCTYPE svg PUBLIC "-//W3C//DTD SVG 1.1//EN" "http://www.w3.org/Graphics/SVG/1.1/DTD/svg11.dtd">
<!-- Creator: CorelDRAW 2018 (64-Bit) -->
<svg xmlns="http://www.w3.org/2000/svg" xml:space="preserve" width="4.2332mm" height="4.2332mm" version="1.1" style="shape-rendering:geometricPrecision; text-rendering:geometricPrecision; image-rendering:optimizeQuality; fill-rule:evenodd; clip-rule:evenodd"
viewBox="0 0 10.73 10.73"
 xmlns:xlink="http://www.w3.org/1999/xlink">
 <defs>
  <style type="text/css">
   <![CDATA[
    .fil1 {fill:#231F20}
    .fil0 {fill:white;fill-opacity:0.000000}
   ]]>
  </style>
 </defs>
 <g id="Слой_x0020_1">
  <metadata id="CorelCorpID_0Corel-Layer"/>
  <g id="_2960595351936">
   <g id="Layer_2" data-name="Layer 2">
    <g id="checkmark-circle">
     <g id="checkmark-circle-2" data-name="checkmark-circle">
      <polygon class="fil0" points="-0,10.73 10.73,10.73 10.73,0 -0,0 "/>
      <path class="fil1" d="M4.35 5.04c-0.08,-0.08 -0.19,-0.13 -0.32,-0.13 -0.24,0 -0.46,0.21 -0.46,0.46 0,0.11 0.05,0.24 0.13,0.32l1.34 1.34c0.08,0.08 0.19,0.13 0.32,0.13 0,0 0,0 0,0l0 0c0.13,0 0.24,-0.05 0.32,-0.16l3.14 -3.57c0.05,-0.08 0.11,-0.19 0.11,-0.27 0,-0.24 -0.19,-0.46 -0.46,-0.46 -0.13,0 -0.24,0.05 -0.32,0.13l-2.79 3.22 -1.02 -1.02 0 -0z"/>
      <path class="fil1" d="M9.39 4.91l0 0c-0.24,0 -0.46,0.19 -0.46,0.46 0,1.99 -1.61,3.57 -3.57,3.57l0 0c-1.99,0 -3.57,-1.61 -3.57,-3.57 0,-0.94 0.38,-1.85 1.05,-2.52 0.67,-0.67 1.58,-1.05 2.52,-1.05 0,0 0,0 0,0 0.3,0 0.56,0.03 0.86,0.11 0.05,0 0.08,0.03 0.13,0.03 0.24,0 0.46,-0.19 0.46,-0.46 0,-0.21 -0.16,-0.4 -0.38,-0.43 -0.35,-0.08 -0.7,-0.13 -1.07,-0.13 -2.47,0 -4.45,2.01 -4.45,4.48 0,1.18 0.48,2.33 1.31,3.17 0.83,0.83 1.96,1.29 3.14,1.31l0 0c2.47,0 4.48,-2.01 4.48,-4.48 0,-0.24 -0.19,-0.46 -0.46,-0.46l0 -0.03z"/>
     </g>
    </g>
   </g>
  </g>
 </g>
</svg>
