<?xml version="1.0" encoding="UTF-8"?>
<!DOCTYPE svg PUBLIC "-//W3C//DTD SVG 1.1//EN" "http://www.w3.org/Graphics/SVG/1.1/DTD/svg11.dtd">
<!-- Creator: CorelDRAW 2018 (64-Bit) -->
<svg xmlns="http://www.w3.org/2000/svg" xml:space="preserve" width="5.9847mm" height="6.35mm" version="1.1" style="shape-rendering:geometricPrecision; text-rendering:geometricPrecision; image-rendering:optimizeQuality; fill-rule:evenodd; clip-rule:evenodd"
viewBox="0 0 8.27 8.78"
 xmlns:xlink="http://www.w3.org/1999/xlink">
 <defs>
  <style type="text/css">
   <![CDATA[
    .fil0 {fill:#3EBBC4}
   ]]>
  </style>
 </defs>
 <g id="Слой_x0020_1">
  <metadata id="CorelCorpID_0Corel-Layer"/>
  <g id="_798747008">
   <g id="_2209655129264">
    <g id="_2960595377856">
     <path class="fil0" d="M7.9 4.69c0.23,-0.15 0.33,-0.38 0.33,-0.64 0,-0.45 -0.33,-0.78 -0.78,-0.78l-1.69 0c-0.11,0 -0.23,-0.07 -0.23,-0.23l0 -1.91c0,-0.64 -0.52,-1.13 -1.13,-1.13 -0.19,0 -0.33,0.15 -0.33,0.33l0 1.32c-0.26,0.78 -0.75,1.5 -1.42,2.03l-0.23 0.19 0 -0.19 -2.43 0 0 5.1 2.43 0 0 -0.41c0.45,0.26 0.97,0.41 1.5,0.41l2.78 0c0.38,0 0.71,-0.33 0.71,-0.71 0,-0.15 -0.07,-0.3 -0.15,-0.45 0.41,-0.07 0.71,-0.41 0.71,-0.83 0,-0.26 -0.11,-0.45 -0.26,-0.64 0.33,-0.11 0.56,-0.45 0.56,-0.78 0,-0.3 -0.15,-0.52 -0.33,-0.71l-0.04 0.04 0 -0zm-5.74 3.82l-1.87 0 0 -4.53 1.87 0 0 4.53zm5.25 -2.55c0,0 -0.23,0 -0.3,0l0 0.3c0.3,0 0.56,0.26 0.56,0.56 0,0.3 -0.26,0.56 -0.56,0.56l-0.41 0 0 0.3c0.23,0 0.41,0.19 0.41,0.41 0,0.23 -0.19,0.41 -0.41,0.41l-2.78 0c-0.52,0 -1.05,-0.19 -1.5,-0.49l0 -3.79 0.41 -0.3c0.71,-0.56 1.23,-1.32 1.54,-2.17l0 -0.04 0 -1.39c0,-0.04 0.04,-0.07 0.07,-0.07 0.45,0 0.87,0.38 0.87,0.87l0 1.91c0,0.26 0.23,0.49 0.49,0.49l1.69 0c0.26,0 0.49,0.23 0.49,0.49 0,0.26 -0.23,0.49 -0.49,0.49l-0.07 0 0 0.3c0.3,0 0.56,0.26 0.56,0.56 0,0.3 -0.26,0.56 -0.56,0.56l0 0.04 -0.01 0.01z"/>
     <circle class="fil0" cx="1.23" cy="8.02" r="0.23"/>
    </g>
   </g>
  </g>
 </g>
</svg>
