<?xml version="1.0" encoding="UTF-8"?>
<!DOCTYPE svg PUBLIC "-//W3C//DTD SVG 1.1//EN" "http://www.w3.org/Graphics/SVG/1.1/DTD/svg11.dtd">
<!-- Creator: CorelDRAW 2018 (64-Bit) -->
<svg xmlns="http://www.w3.org/2000/svg" xml:space="preserve" width="4.3284mm" height="4.2332mm" version="1.1" style="shape-rendering:geometricPrecision; text-rendering:geometricPrecision; image-rendering:optimizeQuality; fill-rule:evenodd; clip-rule:evenodd"
viewBox="0 0 12.33 12.06"
 xmlns:xlink="http://www.w3.org/1999/xlink">
 <defs>
  <style type="text/css">
   <![CDATA[
    .fil0 {fill:black}
   ]]>
  </style>
 </defs>
 <g id="Слой_x0020_1">
  <metadata id="CorelCorpID_0Corel-Layer"/>
  <g id="_2209658329056">
   <g id="_2959851220448">
    <path class="fil0" d="M10.36 1.27l-1.24 0c-0.35,0 -0.66,0.31 -0.66,0.66l0 1.24c0,0.35 0.31,0.66 0.66,0.66l1.24 0c0.35,0 0.66,-0.31 0.66,-0.66l0 -1.24c0,-0.35 -0.31,-0.66 -0.66,-0.66zm0.15 1.89c0,0.08 -0.08,0.15 -0.15,0.15l-1.24 0c-0.08,0 -0.15,-0.08 -0.15,-0.15l0 -1.24c0,-0.08 0.08,-0.15 0.15,-0.15l1.24 0c0.08,0 0.15,0.08 0.15,0.15l0 1.24z"/>
    <path class="fil0" d="M9.7 0l-7.07 0c-1.43,0 -2.63,1.16 -2.63,2.63l0 1.74 0 0.5 0 4.56c0,1.43 1.16,2.63 2.63,2.63l7.07 0c1.43,0 2.63,-1.16 2.63,-2.63l0 -4.56 0 -0.5 0 -1.74c0,-1.43 -1.16,-2.63 -2.63,-2.63zm2.09 9.39c0,1.16 -0.93,2.09 -2.09,2.09l-7.07 0c-1.16,0 -2.09,-0.93 -2.09,-2.09l0 -4.56 3.13 0c-0.66,0.66 -1.08,1.55 -1.08,2.55 0,1.97 1.62,3.59 3.59,3.59 1.97,0 3.59,-1.62 3.59,-3.59 0,-1.01 -0.43,-1.89 -1.08,-2.55l3.13 0 0 4.56 -0.04 0zm-2.55 -1.97c0,1.7 -1.39,3.05 -3.05,3.05 -1.7,0 -3.05,-1.39 -3.05,-3.05 0,-1.7 1.39,-3.05 3.05,-3.05 1.7,0 3.05,1.39 3.05,3.05zm-1.24 -3.05c-0.54,-0.31 -1.16,-0.5 -1.82,-0.5 -0.66,0 -1.31,0.19 -1.82,0.5l-3.79 0 0 -1.74c0,-1.16 0.93,-2.09 2.09,-2.09l7.07 0c1.16,0 2.09,0.93 2.09,2.09l0 1.74 -3.79 0 -0.04 0z"/>
    <path class="fil0" d="M3.86 7.42c0,1.27 1.04,2.32 2.32,2.32 1.27,0 2.32,-1.04 2.32,-2.32 0,-1.28 -1.04,-2.32 -2.32,-2.32 -1.28,0 -2.32,1.04 -2.32,2.32zm4.1 0c0,1 -0.81,1.78 -1.78,1.78 -1.01,0 -1.78,-0.81 -1.78,-1.78 0,-1.01 0.81,-1.78 1.78,-1.78 1,0 1.78,0.81 1.78,1.78z"/>
   </g>
  </g>
 </g>
</svg>
