<?xml version="1.0" encoding="UTF-8"?>
<!DOCTYPE svg PUBLIC "-//W3C//DTD SVG 1.1//EN" "http://www.w3.org/Graphics/SVG/1.1/DTD/svg11.dtd">
<!-- Creator: CorelDRAW 2018 (64-Bit) -->
<svg xmlns="http://www.w3.org/2000/svg" xml:space="preserve" width="4.2334mm" height="3.2318mm" version="1.1" style="shape-rendering:geometricPrecision; text-rendering:geometricPrecision; image-rendering:optimizeQuality; fill-rule:evenodd; clip-rule:evenodd"
viewBox="0 0 10.57 8.07"
 xmlns:xlink="http://www.w3.org/1999/xlink">
 <defs>
  <style type="text/css">
   <![CDATA[
    .fil0 {fill:#134563}
   ]]>
  </style>
 </defs>
 <g id="Слой_x0020_1">
  <metadata id="CorelCorpID_0Corel-Layer"/>
  <g id="_2209568517312">
   <g id="_2960595331936">
    <g>
     <g id="Icon-Envelope">
      <path id="Fill-3" class="fil0" d="M10.49 1.07l-0.42 -0.42 -3.9 3.9c-0.48,0.48 -1.31,0.48 -1.79,0l-3.9 -3.87 -0.42 0.42 2.89 2.89 -2.89 2.89 0.42 0.42 2.89 -2.89 0.57 0.57c0.36,0.36 0.8,0.57 1.31,0.57 0.48,0 0.95,-0.21 1.31,-0.57l0.57 -0.57 2.89 2.89 0.42 -0.42 -2.89 -2.89 2.92 -2.92 0.03 0z"/>
      <path id="Fill-4" class="fil0" d="M9.65 8.07l-8.73 0c-0.51,0 -0.92,-0.42 -0.92,-0.92l0 -6.23c0,-0.51 0.42,-0.92 0.92,-0.92l8.73 0c0.51,0 0.92,0.42 0.92,0.92l0 6.23c0,0.51 -0.42,0.92 -0.92,0.92l0 0zm-8.76 -7.51c-0.18,0 -0.3,0.12 -0.3,0.3l0 6.23c0,0.18 0.12,0.3 0.3,0.3l8.73 0c0.18,0 0.3,-0.12 0.3,-0.3l0 -6.23c0,-0.18 -0.12,-0.3 -0.3,-0.3l-8.73 0 0 0z"/>
     </g>
    </g>
   </g>
  </g>
 </g>
</svg>
