<?xml version="1.0" encoding="UTF-8"?>
<!DOCTYPE svg PUBLIC "-//W3C//DTD SVG 1.1//EN" "http://www.w3.org/Graphics/SVG/1.1/DTD/svg11.dtd">
<!-- Creator: CorelDRAW 2018 (64-Bit) -->
<svg xmlns="http://www.w3.org/2000/svg" xml:space="preserve" width="4.5536mm" height="6.35mm" version="1.1" style="shape-rendering:geometricPrecision; text-rendering:geometricPrecision; image-rendering:optimizeQuality; fill-rule:evenodd; clip-rule:evenodd"
viewBox="0 0 5.45 7.6"
 xmlns:xlink="http://www.w3.org/1999/xlink">
 <defs>
  <style type="text/css">
   <![CDATA[
    .fil0 {fill:#3EBBC4}
   ]]>
  </style>
 </defs>
 <g id="Слой_x0020_1">
  <metadata id="CorelCorpID_0Corel-Layer"/>
  <g id="_798782784">
   <circle class="fil0" cx="1.66" cy="6.92" r="0.2"/>
   <path class="fil0" d="M2.49 0.19l-0.04 0 -0.2 0 0 1.41c-0.34,0.24 -0.82,0.24 -1.16,0l0 -1.41 -0.2 0 -0.04 0c-0.89,0.54 -1.19,1.82 -0.39,2.61l0.1 0.1c0.24,0.24 0.38,0.87 0.38,1.26l0 2.71c0,0.39 0.29,0.68 0.68,0.68 0.39,0 0.68,-0.29 0.68,-0.68l0 -2.71c0,-0.39 0.14,-1.02 0.38,-1.26l0.1 -0.1c0.78,-0.78 0.62,-2.06 -0.28,-2.61zm-1.65 0.29l0 1.21 0.04 0.04c0.24,0.2 0.48,0.29 0.78,0.29 0.29,0 0.53,-0.1 0.78,-0.29l0.04 -0.04 0 -1.21c0.34,0.24 0.58,0.68 0.58,1.16 0,0.04 0,0.1 0,0.14 0,0 0,0 0,0 0,0.04 0,0.1 0,0.14 0,0 0,0 0,0 0,0.2 -0.25,0.59 -0.38,0.72l-0.04 0.04c-0.24,0.24 -0.58,0.38 -0.97,0.38 -0.39,0 -0.73,-0.14 -0.97,-0.38l-0.04 -0.04c-0.22,-0.22 -0.38,-0.55 -0.38,-0.86 0,0 0,0 0,0 0,-0.04 0,-0.1 0,-0.14 0,-0.44 0.24,-0.87 0.58,-1.16zm1.26 3.68l0 2.71c0,0.24 -0.2,0.44 -0.44,0.44 -0.24,0 -0.44,-0.2 -0.44,-0.44l0 -2.71c0,-0.24 -0.04,-0.68 -0.2,-1.02 0.2,0.1 0.39,0.14 0.63,0.14 0.24,0 0.44,-0.04 0.63,-0.14 -0.14,0.34 -0.2,0.78 -0.2,1.02l0 0 0 0z"/>
   <path class="fil0" d="M5.39 4.21l0.04 -0.04 0 -0.48 -0.63 0 0 -2.86c0.04,0 0.04,-0.04 0.1,-0.04 0.04,-0.04 0.1,-0.14 0.1,-0.24l-0.04 -0.53 -0.48 0 -0.04 0.53c0,0.1 0,0.14 0.1,0.24 0.04,0.04 0.04,0.04 0.1,0.04l0 2.86 -0.63 0 0 0.48 0.04 0.04c0.1,0.04 0.14,0.1 0.14,0.2 0,0.1 -0.04,0.14 -0.14,0.2l-0.04 0.04 0 2.23c0,0.39 0.34,0.73 0.73,0.73 0.39,0 0.73,-0.34 0.73,-0.73l0 -2.23 -0.04 -0.04c-0.1,-0.04 -0.14,-0.1 -0.14,-0.2 0,-0.1 0.04,-0.14 0.14,-0.2l-0.02 0zm-0.68 -3.98l0.04 0 0.04 0.34c0,0 0,0.04 0,0.04 0,0 0,0 -0.04,0 0,0 -0.04,0 -0.04,0 0,0 0,0 0,-0.04l0.04 -0.34 -0.04 0zm-0.48 3.78l0 -0.1 0.97 0 0 0.1c-0.1,0.1 -0.2,0.24 -0.2,0.39 0,0.14 0.1,0.29 0.2,0.38l0 1.93 -0.97 0 0 -1.93c0.1,-0.1 0.2,-0.24 0.2,-0.38 0,-0.14 -0.1,-0.29 -0.2,-0.39zm0.48 3.3c-0.24,0 -0.44,-0.14 -0.48,-0.39l0.97 0c-0.04,0.2 -0.24,0.39 -0.48,0.39l-0.01 0z"/>
  </g>
 </g>
</svg>
