<?xml version="1.0" encoding="UTF-8"?>
<!DOCTYPE svg PUBLIC "-//W3C//DTD SVG 1.1//EN" "http://www.w3.org/Graphics/SVG/1.1/DTD/svg11.dtd">
<!-- Creator: CorelDRAW 2018 (64-Bit) -->
<svg xmlns="http://www.w3.org/2000/svg" xml:space="preserve" width="3.0196mm" height="4.2332mm" version="1.1" style="shape-rendering:geometricPrecision; text-rendering:geometricPrecision; image-rendering:optimizeQuality; fill-rule:evenodd; clip-rule:evenodd"
viewBox="0 0 6.09 8.53"
 xmlns:xlink="http://www.w3.org/1999/xlink">
 <defs>
  <style type="text/css">
   <![CDATA[
    .fil0 {fill:#3EBBC4}
   ]]>
  </style>
 </defs>
 <g id="Слой_x0020_1">
  <metadata id="CorelCorpID_0Corel-Layer"/>
  <g id="_2209572779008">
   <g id="_2959713307456">
    <g>
     <circle class="fil0" cx="1.85" cy="7.77" r="0.22"/>
     <path class="fil0" d="M3.7 1.85c0,-0.65 -0.38,-1.3 -0.92,-1.63l-0.05 0 -0.22 0 0 1.58c-0.38,0.27 -0.92,0.27 -1.3,0l0 -1.58 -0.22 0 -0.05 0c-0.54,0.33 -0.92,0.92 -0.92,1.58 0,0 0,0 0,0l0 0c0,0.05 0,0.05 0,0.11 0,0 0,0 0,0.05 0,0 0,0.05 0,0.05 0,0 0,0.05 0,0.05 0,0 0,0.05 0,0.05 0,0 0,0.05 0,0.05 0,0 0,0.05 0,0.05 0,0 0,0.05 0,0.05 0,0 0,0.05 0,0.05 0,0 0,0.05 0,0.05 0,0 0,0 0,0.05 0,0 0,0.05 0,0.05 0,0 0,0 0,0.05 0,0 0,0.05 0,0.05 0,0 0,0 0,0 0,0 0,0.05 0.05,0.05 0,0 0,0 0,0 0,0.05 0,0.05 0.05,0.05 0,0 0,0 0,0 0.11,0.16 0.22,0.33 0.38,0.49l0.11 0.11c0.27,0.27 0.43,0.98 0.43,1.41l0 3.04c0,0.44 0.33,0.76 0.76,0.76 0.44,0 0.76,-0.33 0.76,-0.76l0 -3.04c0,-0.44 0.16,-1.14 0.43,-1.41l0.11 -0.11c0.16,-0.16 0.27,-0.33 0.38,-0.49 0,0 0,0 0,0 0,0 0.05,-0.05 0.05,-0.05 0,0 0,0 0,0 0,0 0,-0.05 0.05,-0.05 0,0 0,0 0,0 0,0 0,-0.05 0,-0.05 0,0 0,0 0,-0.05 0,0 0,-0.05 0,-0.05 0,0 0,0 0,-0.05 0,0 0,-0.05 0,-0.05 0,0 0,-0.05 0,-0.05 0,0 0,-0.05 0,-0.05 0,0 0,-0.05 0,-0.05 0,0 0,-0.05 0,-0.05 0,0 0,-0.05 0,-0.05 0,0 0,-0.05 0,-0.05 0,0 0,-0.05 0,-0.05 0,0 0,0 0,-0.05 0,-0.05 0,-0.05 0,-0.11l0 0c0,0 0,0 0,0 0,0 0,0 0,0l0 0 0 0 0.11 0.05zm-2.77 -1.3l0 1.36 0.05 0.05c0.27,0.22 0.54,0.33 0.87,0.33 0.33,0 0.6,-0.11 0.87,-0.33l0.05 -0.05 0 -1.36c0.38,0.27 0.65,0.76 0.65,1.3 0,0.05 0,0.11 0,0.16 0,0 0,0 0,0 0,0.05 0,0.11 0,0.16 0,0 0,0 0,0 0,0.05 0,0.11 -0.05,0.16 0,0 0,0 0,0 0,0.05 -0.05,0.11 -0.05,0.16 0,0 0,0 0,0 -0.05,0.16 -0.16,0.33 -0.33,0.49l-0.05 0.05c-0.27,0.27 -0.65,0.43 -1.09,0.43 -0.44,0 -0.82,-0.16 -1.09,-0.43l-0.05 -0.05c-0.16,-0.16 -0.27,-0.33 -0.33,-0.49 0,0 0,0 0,0 0,-0.05 -0.05,-0.11 -0.05,-0.16 0,0 0,0 0,0 0,-0.05 0,-0.11 -0.05,-0.16 0,0 0,0 0,0 0,-0.05 0,-0.11 0,-0.16 0,0 0,0 0,0 0,-0.05 0,-0.11 0,-0.16 0,-0.49 0.27,-0.98 0.65,-1.3zm1.41 4.13l0 3.04c0,0.27 -0.22,0.49 -0.49,0.49 -0.27,0 -0.49,-0.22 -0.49,-0.49l0 -3.04c0,-0.27 -0.05,-0.76 -0.22,-1.14 0.22,0.11 0.44,0.16 0.71,0.16 0.27,0 0.49,-0.05 0.71,-0.16 -0.16,0.38 -0.22,0.87 -0.22,1.14l-0 0z"/>
     <path class="fil0" d="M6.03 4.73l0.05 -0.05 0 -0.54 -0.71 0 0 -3.21c0.05,0 0.05,-0.05 0.11,-0.05 0.05,-0.05 0.11,-0.16 0.11,-0.27l-0.05 -0.6 -0.54 0 -0.05 0.6c0,0.11 0,0.16 0.11,0.27 0.05,0.05 0.05,0.05 0.11,0.05l0 3.21 -0.71 0 0 0.54 0.05 0.05c0.11,0.05 0.16,0.11 0.16,0.22 0,0.11 -0.05,0.16 -0.16,0.22l-0.05 0.05 0 2.5c0,0.44 0.38,0.82 0.82,0.82 0.44,0 0.82,-0.38 0.82,-0.82l0 -2.5 -0.05 -0.05c-0.11,-0.05 -0.16,-0.11 -0.16,-0.22 0,-0.11 0.05,-0.16 0.16,-0.22zm-0.76 -4.46l0.05 0 0.05 0.38c0,0 0,0.05 0,0.05 0,0 0,0 -0.05,0 0,0 -0.05,0 -0.05,0 0,0 0,0 0,-0.05l0.05 -0.38 -0.05 0zm-0.54 4.24l0 -0.11 1.09 0 0 0.11c-0.11,0.11 -0.22,0.27 -0.22,0.44 0,0.16 0.11,0.33 0.22,0.43l0 2.17 -1.09 0 0 -2.17c0.11,-0.11 0.22,-0.27 0.22,-0.43 0,-0.16 -0.11,-0.33 -0.22,-0.44zm0.54 3.7c-0.27,0 -0.49,-0.16 -0.54,-0.44l1.09 0c-0.05,0.22 -0.27,0.44 -0.54,0.44z"/>
    </g>
   </g>
  </g>
 </g>
</svg>
