<?xml version="1.0" encoding="UTF-8"?>
<!DOCTYPE svg PUBLIC "-//W3C//DTD SVG 1.1//EN" "http://www.w3.org/Graphics/SVG/1.1/DTD/svg11.dtd">
<!-- Creator: CorelDRAW 2018 (64-Bit) -->
<svg xmlns="http://www.w3.org/2000/svg" xml:space="preserve" width="2.6016mm" height="4.2333mm" version="1.1" style="shape-rendering:geometricPrecision; text-rendering:geometricPrecision; image-rendering:optimizeQuality; fill-rule:evenodd; clip-rule:evenodd"
viewBox="0 0 4.83 7.86"
 xmlns:xlink="http://www.w3.org/1999/xlink">
 <defs>
  <style type="text/css">
   <![CDATA[
    .fil0 {fill:black}
   ]]>
  </style>
 </defs>
 <g id="Слой_x0020_1">
  <metadata id="CorelCorpID_0Corel-Layer"/>
  <g id="_2209655322192">
   <path class="fil0" d="M4.08 0l-3.34 0c-0.44,0 -0.75,0.35 -0.75,0.75l0 6.37c0,0.44 0.35,0.75 0.75,0.75l3.34 0c0.44,0 0.75,-0.35 0.75,-0.75l0 -6.37c0,-0.44 -0.35,-0.75 -0.75,-0.75l0 0zm0.44 7.16c0,0.26 -0.22,0.44 -0.44,0.44l-3.34 0c-0.26,0 -0.44,-0.22 -0.44,-0.44l0 -6.37c0,-0.26 0.22,-0.44 0.44,-0.44l3.34 0c0.26,0 0.44,0.22 0.44,0.44l0 6.37 0 0z"/>
   <path class="fil0" d="M0.61 6.37l3.65 0 0 -5.18 -3.65 0 0 5.18zm0.31 -4.88l3.03 0 0 4.57 -3.03 0 0 -4.57z"/>
   <circle class="fil0" cx="2.42" cy="6.98" r="0.31"/>
   <rect class="fil0" x="1.84" y="0.62" width="1.23" height="0.31"/>
  </g>
 </g>
</svg>
