<?xml version="1.0" encoding="UTF-8"?>
<!DOCTYPE svg PUBLIC "-//W3C//DTD SVG 1.1//EN" "http://www.w3.org/Graphics/SVG/1.1/DTD/svg11.dtd">
<!-- Creator: CorelDRAW 2018 (64-Bit) -->
<svg xmlns="http://www.w3.org/2000/svg" xml:space="preserve" width="3.2192mm" height="6.35mm" version="1.1" style="shape-rendering:geometricPrecision; text-rendering:geometricPrecision; image-rendering:optimizeQuality; fill-rule:evenodd; clip-rule:evenodd"
viewBox="0 0 2.92 5.77"
 xmlns:xlink="http://www.w3.org/1999/xlink">
 <defs>
  <style type="text/css">
   <![CDATA[
    .fil0 {fill:#3EBBC4}
   ]]>
  </style>
 </defs>
 <g id="Слой_x0020_1">
  <metadata id="CorelCorpID_0Corel-Layer"/>
  <g id="_795822880">
   <g id="_2209656649232">
    <g id="_2960595360256">
     <g>
      <path class="fil0" d="M1.09 0.15l-1.09 0.39 0 0.2 1.09 0 0 0.78 -1.03 0 0 0.2 0.84 0.35 0 0.94 0.25 0 0 2.76 0.84 0 0 -2.76 0.25 0 0 -0.64 0.2 0 0 -0.2 -0.2 0 0 -0.45 0.64 -0.1 0 -0.2 -0.88 0 0 -0.78 0.94 0 0 -0.2 -0.74 -0.1 0 -0.35 -1.03 0 -0.05 0.15 -0.01 0zm-0.64 1.58l0.78 0 0 1.13 -0.2 0 0 -0.88 -0.59 -0.25 0 0 -0 0zm1.52 1.13l-0.2 0 0 -1.13 0.2 0 0 1.13zm-0.25 -1.33l-0.15 0 0 1.52 0.15 0 0 2.56 -0.45 0 0 -0.29 0.15 0 0 -0.2 -0.15 0 0 -0.29 0.15 0 0 -0.2 -0.15 0 0 -0.29 0.15 0 0 -0.2 -0.15 0 0 -0.29 0.15 0 0 -0.2 -0.15 0 0 -0.29 0.15 0 0 -0.2 -0.15 0 0 -0.29 0.15 0 0 -1.52 -0.15 0 0 -0.35 0.15 0 0 -0.2 -0.15 0 0 -0.29 0.45 0 0 0.78 0 0.24 0 -0zm0.2 -0.99l-1.43 0 0.64 -0.25 0.84 0 0 0.25 -0.05 0 0 0z"/>
     </g>
    </g>
   </g>
  </g>
 </g>
</svg>
