<?xml version="1.0" encoding="UTF-8"?>
<!DOCTYPE svg PUBLIC "-//W3C//DTD SVG 1.1//EN" "http://www.w3.org/Graphics/SVG/1.1/DTD/svg11.dtd">
<!-- Creator: CorelDRAW 2018 (64-Bit) -->
<svg xmlns="http://www.w3.org/2000/svg" xml:space="preserve" width="2.1348mm" height="4.2332mm" version="1.1" style="shape-rendering:geometricPrecision; text-rendering:geometricPrecision; image-rendering:optimizeQuality; fill-rule:evenodd; clip-rule:evenodd"
viewBox="0 0 3.26 6.47"
 xmlns:xlink="http://www.w3.org/1999/xlink">
 <defs>
  <style type="text/css">
   <![CDATA[
    .fil0 {fill:#3EBBC4}
   ]]>
  </style>
 </defs>
 <g id="Слой_x0020_1">
  <metadata id="CorelCorpID_0Corel-Layer"/>
  <g id="_2209656649232">
   <g id="_2960595360256">
    <g>
     <path class="fil0" d="M1.22 0.17l-1.22 0.44 0 0.22 1.22 0 0 0.88 -1.16 0 0 0.22 0.94 0.39 0 1.05 0.28 0 0 3.1 0.94 0 0 -3.1 0.28 0 0 -0.72 0.22 0 0 -0.22 -0.22 0 0 -0.5 0.72 -0.11 0 -0.22 -0.99 0 0 -0.88 1.05 0 0 -0.22 -0.83 -0.11 0 -0.39 -1.16 0 -0.06 0.17zm-0.72 1.77l0.88 0 0 1.27 -0.22 0 0 -0.99 -0.66 -0.28 0 -0zm1.71 1.27l-0.22 0 0 -1.27 0.22 0 0 1.27zm-0.28 -1.49l-0.17 0 0 1.71 0.17 0 0 2.87 -0.5 0 0 -0.33 0.17 0 0 -0.22 -0.17 0 0 -0.33 0.17 0 0 -0.22 -0.17 0 0 -0.33 0.17 0 0 -0.22 -0.17 0 0 -0.33 0.17 0 0 -0.22 -0.17 0 0 -0.33 0.17 0 0 -0.22 -0.17 0 0 -0.33 0.17 0 0 -1.71 -0.17 0 0 -0.39 0.17 0 0 -0.22 -0.17 0 0 -0.33 0.5 0 0 0.88 0 0.27zm0.22 -1.11l-1.6 0 0.72 -0.28 0.94 0 0 0.28 -0.06 0z"/>
    </g>
   </g>
  </g>
 </g>
</svg>
