<?xml version="1.0" encoding="UTF-8"?>
<!DOCTYPE svg PUBLIC "-//W3C//DTD SVG 1.1//EN" "http://www.w3.org/Graphics/SVG/1.1/DTD/svg11.dtd">
<!-- Creator: CorelDRAW 2018 (64-Bit) -->
<svg xmlns="http://www.w3.org/2000/svg" xml:space="preserve" width="8.4262mm" height="5.08mm" version="1.1" style="shape-rendering:geometricPrecision; text-rendering:geometricPrecision; image-rendering:optimizeQuality; fill-rule:evenodd; clip-rule:evenodd"
viewBox="0 0 48.09 28.99"
 xmlns:xlink="http://www.w3.org/1999/xlink">
 <defs>
  <style type="text/css">
   <![CDATA[
    .fil0 {fill:black}
   ]]>
  </style>
 </defs>
 <g id="Слой_x0020_1">
  <metadata id="CorelCorpID_0Corel-Layer"/>
  <path class="fil0" d="M24.83 9.71c-0.19,0 -0.38,0.06 -0.57,0.25l-4.22 4.22 -2.58 -2.58c-0.76,-0.76 -1.89,0.44 -1.13,1.13l3.15 3.15c0.32,0.32 0.82,0.32 1.13,0l4.79 -4.79c0.5,-0.5 0.13,-1.39 -0.57,-1.39l0 0zm-24.01 6.43l4.79 0c0.44,0 0.82,0.38 0.82,0.82 0,0.44 -0.38,0.82 -0.82,0.82l-4.79 0c-0.44,0 -0.82,-0.38 -0.82,-0.82 0,-0.44 0.38,-0.82 0.82,-0.82zm0 -6.43l4.79 0c0.44,0 0.82,0.38 0.82,0.82 0,0.44 -0.38,0.82 -0.82,0.82l-4.79 0c-0.44,0 -0.82,-0.38 -0.82,-0.82 0,-0.44 0.38,-0.82 0.82,-0.82zm0 -6.43l4.79 0c0.44,0 0.82,0.38 0.82,0.82 0,0.44 -0.38,0.82 -0.82,0.82l-4.79 0c-0.44,0 -0.82,-0.38 -0.82,-0.82 0,-0.44 0.38,-0.82 0.82,-0.82zm38.45 17.65c-2.21,0 -4.03,1.83 -4.03,4.03 0,2.21 1.83,4.03 4.03,4.03 2.21,0 4.03,-1.83 4.03,-4.03 0,-2.21 -1.83,-4.03 -4.03,-4.03zm0 1.58c1.32,0 2.39,1.07 2.39,2.39 0,1.32 -1.07,2.39 -2.39,2.39 -1.32,0 -2.39,-1.07 -2.39,-2.39 0,-1.32 1.07,-2.39 2.39,-2.39zm-20.86 -1.58c-2.21,0 -4.03,1.83 -4.03,4.03 0,2.21 1.83,4.03 4.03,4.03 2.21,0 4.03,-1.83 4.03,-4.03 0,-2.21 -1.83,-4.03 -4.03,-4.03zm0 1.58c1.32,0 2.39,1.07 2.39,2.39 0,1.32 -1.07,2.39 -2.39,2.39 -1.32,0 -2.39,-1.07 -2.39,-2.39 0,-1.32 1.07,-2.39 2.39,-2.39zm-8 -22.44c-1.32,0 -2.39,1.07 -2.39,2.39l0 17.65c0,1.32 1.07,2.39 2.39,2.39l3.21 0c1.07,0 1.07,-1.64 0,-1.58l-3.21 0c-0.44,0 -0.82,-0.32 -0.82,-0.82l0 -17.65c0,-0.44 0.32,-0.82 0.82,-0.82l20.86 0c0.44,0 0.82,0.32 0.82,0.82l0 18.41 -8.82 0c-1.07,0 -1.01,1.64 0,1.58l11.22 0c1.07,0 1.07,-1.58 0,-1.58l-0.82 0 0 -14.43 6.81 0 6.05 9.45 0 4.16c0,0.44 -0.32,0.82 -0.82,0.82l-1.58 0c-1.07,0 -1.07,1.58 0,1.58l1.58 0c1.32,0 2.39,-1.07 2.39,-2.39l0 -4.41c0,-0.13 -0.06,-0.32 -0.12,-0.44l-6.43 -10.02c-0.13,-0.25 -0.38,-0.38 -0.69,-0.38l-7.19 0 0 -2.39c0,-1.32 -1.07,-2.39 -2.39,-2.39l-20.86 0 -0 0.06z"/>
 </g>
</svg>
