<?xml version="1.0" encoding="UTF-8"?>
<!DOCTYPE svg PUBLIC "-//W3C//DTD SVG 1.1//EN" "http://www.w3.org/Graphics/SVG/1.1/DTD/svg11.dtd">
<!-- Creator: CorelDRAW 2018 (64-Bit) -->
<svg xmlns="http://www.w3.org/2000/svg" xml:space="preserve" width="10.5432mm" height="6.35mm" version="1.1" style="shape-rendering:geometricPrecision; text-rendering:geometricPrecision; image-rendering:optimizeQuality; fill-rule:evenodd; clip-rule:evenodd"
viewBox="0 0 32.31 19.46"
 xmlns:xlink="http://www.w3.org/1999/xlink">
 <defs>
  <style type="text/css">
   <![CDATA[
    .fil0 {fill:black}
   ]]>
  </style>
 </defs>
 <g id="Слой_x0020_1">
  <metadata id="CorelCorpID_0Corel-Layer"/>
  <path class="fil0" d="M16.68 6.51c-0.12,0 -0.26,0.04 -0.38,0.17l-2.84 2.84 -1.74 -1.74c-0.51,-0.51 -1.27,0.3 -0.77,0.77l2.11 2.11c0.21,0.21 0.55,0.21 0.77,0l3.22 -3.22c0.34,-0.34 0.08,-0.93 -0.38,-0.93l0 0 -0 -0.01zm-16.13 4.32l3.22 0c0.3,0 0.55,0.26 0.55,0.55 0,0.3 -0.26,0.55 -0.55,0.55l-3.22 0c-0.3,0 -0.55,-0.26 -0.55,-0.55 0,-0.3 0.26,-0.55 0.55,-0.55zm0 -4.32l3.22 0c0.3,0 0.55,0.26 0.55,0.55 0,0.3 -0.26,0.55 -0.55,0.55l-3.22 0c-0.3,0 -0.55,-0.26 -0.55,-0.55 0,-0.3 0.26,-0.55 0.55,-0.55zm0 -4.32l3.22 0c0.3,0 0.55,0.26 0.55,0.55 0,0.3 -0.26,0.55 -0.55,0.55l-3.22 0c-0.3,0 -0.55,-0.26 -0.55,-0.55 0,-0.3 0.26,-0.55 0.55,-0.55zm25.82 11.86c-1.48,0 -2.71,1.23 -2.71,2.71 0,1.48 1.23,2.71 2.71,2.71 1.48,0 2.71,-1.23 2.71,-2.71 0,-1.48 -1.23,-2.71 -2.71,-2.71zm0 1.06c0.89,0 1.6,0.71 1.6,1.6 0,0.89 -0.72,1.6 -1.6,1.6 -0.89,0 -1.6,-0.72 -1.6,-1.6 0,-0.89 0.71,-1.6 1.6,-1.6zm-14.02 -1.06c-1.48,0 -2.71,1.23 -2.71,2.71 0,1.48 1.23,2.71 2.71,2.71 1.48,0 2.71,-1.23 2.71,-2.71 0,-1.48 -1.23,-2.71 -2.71,-2.71zm0 1.06c0.89,0 1.6,0.71 1.6,1.6 0,0.89 -0.71,1.6 -1.6,1.6 -0.89,0 -1.6,-0.72 -1.6,-1.6 0,-0.89 0.72,-1.6 1.6,-1.6zm-5.37 -15.08c-0.89,0 -1.6,0.72 -1.6,1.6l0 11.86c0,0.89 0.72,1.6 1.6,1.6l2.16 0c0.71,0 0.71,-1.1 0,-1.06l-2.16 0c-0.3,0 -0.55,-0.21 -0.55,-0.55l0 -11.86c0,-0.3 0.21,-0.55 0.55,-0.55l14.02 0c0.3,0 0.55,0.21 0.55,0.55l0 12.36 -5.92 0c-0.71,0 -0.67,1.1 0,1.06l7.54 0c0.72,0 0.72,-1.06 0,-1.06l-0.55 0 0 -9.69 4.58 0 4.07 6.35 0 2.8c0,0.3 -0.21,0.55 -0.55,0.55l-1.06 0c-0.73,0 -0.73,1.06 0,1.06l1.06 0c0.89,0 1.6,-0.71 1.6,-1.6l0 -2.96c0,-0.08 -0.04,-0.21 -0.08,-0.3l-4.32 -6.73c-0.08,-0.17 -0.26,-0.26 -0.47,-0.26l-4.83 0 0 -1.6c0,-0.89 -0.71,-1.6 -1.6,-1.6l-14.01 0 0 0.04 0 -0.01z"/>
 </g>
</svg>
