<?xml version="1.0" encoding="UTF-8"?>
<!DOCTYPE svg PUBLIC "-//W3C//DTD SVG 1.1//EN" "http://www.w3.org/Graphics/SVG/1.1/DTD/svg11.dtd">
<!-- Creator: CorelDRAW 2018 (64-Bit) -->
<svg xmlns="http://www.w3.org/2000/svg" xml:space="preserve" width="3.8486mm" height="4.2332mm" version="1.1" style="shape-rendering:geometricPrecision; text-rendering:geometricPrecision; image-rendering:optimizeQuality; fill-rule:evenodd; clip-rule:evenodd"
viewBox="0 0 9.75 10.72"
 xmlns:xlink="http://www.w3.org/1999/xlink">
 <defs>
  <style type="text/css">
   <![CDATA[
    .fil0 {fill:black}
   ]]>
  </style>
 </defs>
 <g id="Слой_x0020_1">
  <metadata id="CorelCorpID_0Corel-Layer"/>
  <g id="_2209654039744">
   <g id="_2960595383584">
    <path class="fil0" d="M5.88 0.07l-2.02 0c-2.12,0 -3.86,1.74 -3.86,3.86l0 1.85c0,1.6 0.98,3.03 2.44,3.59l0 1.18c0,0.07 0.03,0.14 0.1,0.17 0.03,0 0.07,0 0.07,0 0.03,0 0.1,-0.03 0.14,-0.07l1.18 -1.08 1.95 0c2.12,0 3.86,-1.74 3.86,-3.86l0 -1.85c0,-2.12 -1.74,-3.86 -3.86,-3.86l0 0.07zm3.45 5.71c0,1.91 -1.57,3.45 -3.45,3.45l-2.02 0c-0.03,0 -0.1,0.03 -0.14,0.07l-0.91 0.8 0 -0.87c0,-0.07 -0.07,-0.17 -0.14,-0.21 -1.39,-0.49 -2.3,-1.81 -2.3,-3.27l0 -1.85c0,-1.91 1.57,-3.45 3.45,-3.45l2.02 0c1.91,0 3.45,1.57 3.45,3.45l0 1.85 0.03 0.03z"/>
    <path class="fil0" d="M7.56 6.27l-1.25 -0.8c-0.14,-0.1 -0.31,-0.1 -0.45,-0.07 -0.17,0.03 -0.31,0.14 -0.38,0.28l-0.07 0.1c-0.56,-0.17 -1.15,-0.42 -1.5,-1.43l0.14 -0.14 0 0c0.24,-0.21 0.28,-0.59 0.07,-0.87l-0.98 -1.11c-0.07,-0.07 -0.21,-0.1 -0.28,-0.03l-0.63 0.52c-0.52,0.45 -0.28,1.15 -0.21,1.39 0,0 0,0.03 0,0.03 0.03,0.03 0.52,0.94 1.36,1.78 0.84,0.84 2.33,1.64 2.37,1.64 0.17,0.1 0.35,0.17 0.56,0.17 0.35,0 0.66,-0.17 0.87,-0.45l0.45 -0.7c0.07,-0.1 0.03,-0.21 -0.07,-0.28l0 -0.04zm-0.73 0.73c-0.17,0.28 -0.56,0.35 -0.87,0.17 0,0 -1.5,-0.77 -2.3,-1.57 -0.73,-0.73 -1.22,-1.57 -1.29,-1.67 -0.17,-0.45 -0.14,-0.73 0.1,-0.94l0.45 -0.42 0.84 0.98c0.07,0.07 0.07,0.21 -0.03,0.28l-0.24 0.21c-0.07,0.07 -0.07,0.14 -0.07,0.21 0.42,1.39 1.25,1.67 1.85,1.85l0.1 0.03c0.1,0.03 0.17,0 0.24,-0.07l0.14 -0.21c0.03,-0.03 0.07,-0.07 0.14,-0.1 0.07,0 0.1,0 0.14,0.03l1.08 0.7 -0.35 0.52 0.07 0z"/>
    <path class="fil0" d="M5.33 3.38c-0.1,-0.03 -0.21,0.03 -0.24,0.14 -0.03,0.1 0.03,0.21 0.14,0.24 0.31,0.07 0.56,0.31 0.63,0.63 0.03,0.1 0.1,0.14 0.21,0.14 0.03,0 0.03,0 0.07,0 0.1,-0.03 0.17,-0.14 0.14,-0.24 -0.14,-0.45 -0.49,-0.8 -0.91,-0.91l-0.03 0z"/>
    <path class="fil0" d="M6.86 4.6c0.03,0 0.03,0 0.07,0 0.1,-0.03 0.17,-0.14 0.14,-0.24 -0.24,-0.84 -0.91,-1.53 -1.78,-1.78 -0.1,-0.03 -0.21,0.03 -0.24,0.14 -0.03,0.1 0.03,0.21 0.14,0.24 0.73,0.21 1.29,0.77 1.5,1.5 0.03,0.1 0.1,0.14 0.21,0.14l-0.03 0z"/>
    <path class="fil0" d="M5.19 1.6c-0.1,-0.03 -0.21,0.03 -0.24,0.14 -0.03,0.1 0.03,0.21 0.14,0.24 1.22,0.35 2.19,1.32 2.51,2.54 0.03,0.1 0.1,0.14 0.21,0.14 0.03,0 0.03,0 0.07,0 0.1,-0.03 0.17,-0.14 0.14,-0.24 -0.38,-1.36 -1.46,-2.44 -2.79,-2.82l-0.03 0z"/>
   </g>
  </g>
 </g>
</svg>
