<?xml version="1.0" encoding="UTF-8"?>
<!DOCTYPE svg PUBLIC "-//W3C//DTD SVG 1.1//EN" "http://www.w3.org/Graphics/SVG/1.1/DTD/svg11.dtd">
<!-- Creator: CorelDRAW 2018 (64-Bit) -->
<svg xmlns="http://www.w3.org/2000/svg" xml:space="preserve" width="4.2202mm" height="4.2334mm" version="1.1" style="shape-rendering:geometricPrecision; text-rendering:geometricPrecision; image-rendering:optimizeQuality; fill-rule:evenodd; clip-rule:evenodd"
viewBox="0 0 12.54 12.58"
 xmlns:xlink="http://www.w3.org/1999/xlink">
 <defs>
  <style type="text/css">
   <![CDATA[
    .fil0 {fill:black}
   ]]>
  </style>
 </defs>
 <g id="Слой_x0020_1">
  <metadata id="CorelCorpID_0Corel-Layer"/>
  <g id="_2209654064384">
   <g id="_2960595333696">
    <path class="fil0" d="M6.29 0.04c-3.46,0 -6.29,2.83 -6.29,6.29 0,1.18 0.31,2.32 0.94,3.3 -0.24,0.87 -0.71,2.52 -0.71,2.52 -0.04,0.08 0,0.16 0.08,0.24 0.08,0.08 0.16,0.08 0.24,0.04l2.48 -0.75c0.98,0.59 2.08,0.9 3.22,0.9 3.46,0 6.29,-2.83 6.29,-6.29 0,-3.46 -2.83,-6.29 -6.29,-6.29l0.04 0.04zm0 12.07c-1.1,0 -2.16,-0.31 -3.07,-0.87 -0.04,-0.04 -0.08,-0.04 -0.12,-0.04 -0.04,0 -0.04,0 -0.08,0l-2.16 0.67c0.16,-0.59 0.43,-1.61 0.63,-2.2 0,-0.08 0,-0.16 -0.04,-0.2 -0.59,-0.94 -0.94,-2.04 -0.94,-3.15 0,-3.18 2.6,-5.78 5.78,-5.78 3.18,0 5.78,2.6 5.78,5.78 0,3.18 -2.6,5.78 -5.78,5.78l-0 0z"/>
    <path class="fil0" d="M10.38 7.79c-0.43,-0.24 -0.83,-0.51 -1.1,-0.67 -0.2,-0.16 -0.35,-0.24 -0.47,-0.27 -0.31,-0.16 -0.55,-0.04 -0.63,0.04 0,0 -0.04,0.04 -0.04,0.04 -0.31,0.47 -0.75,0.94 -0.87,0.98 -0.16,-0.04 -0.83,-0.39 -1.49,-0.94 -0.67,-0.55 -1.1,-1.1 -1.18,-1.49 0.43,-0.43 0.59,-0.75 0.59,-1.06 0,-0.31 -0.79,-1.73 -0.9,-1.85 -0.16,-0.16 -0.47,-0.16 -0.94,-0.08 -0.04,0 -0.08,0.04 -0.12,0.08 -0.04,0.04 -1.42,1.45 -0.79,3.15 0.71,1.85 2.56,4.01 4.88,4.36 0.27,0.04 0.51,0.08 0.75,0.08 1.38,0 2.2,-0.71 2.44,-2.08 0,-0.12 -0.04,-0.2 -0.12,-0.24l-0 -0.04zm-2.99 1.77c-2.48,-0.35 -4.05,-2.83 -4.52,-4.09 -0.47,-1.22 0.39,-2.32 0.63,-2.6 0.2,-0.04 0.35,-0.04 0.43,-0.04 0.16,0.24 0.75,1.3 0.75,1.49 0,0.12 -0.04,0.31 -0.55,0.79 -0.04,0.04 -0.08,0.12 -0.08,0.16 0,1.26 2.67,3.03 3.15,3.03 0.39,0 0.94,-0.71 1.26,-1.14 0,0 0.04,0 0.08,0.04 0.08,0.04 0.24,0.16 0.43,0.27 0.24,0.16 0.59,0.39 0.98,0.59 -0.2,0.87 -0.67,1.73 -2.6,1.45l0.04 0.04z"/>
   </g>
  </g>
 </g>
</svg>
