<?xml version="1.0" encoding="UTF-8"?>
<!DOCTYPE svg PUBLIC "-//W3C//DTD SVG 1.1//EN" "http://www.w3.org/Graphics/SVG/1.1/DTD/svg11.dtd">
<!-- Creator: CorelDRAW 2018 (64-Bit) -->
<svg xmlns="http://www.w3.org/2000/svg" xml:space="preserve" width="4.2386mm" height="6.35mm" version="1.1" style="shape-rendering:geometricPrecision; text-rendering:geometricPrecision; image-rendering:optimizeQuality; fill-rule:evenodd; clip-rule:evenodd"
viewBox="0 0 6.45 9.66"
 xmlns:xlink="http://www.w3.org/1999/xlink">
 <defs>
  <style type="text/css">
   <![CDATA[
    .fil0 {fill:#3EBBC4}
   ]]>
  </style>
 </defs>
 <g id="Слой_x0020_1">
  <metadata id="CorelCorpID_0Corel-Layer"/>
  <g id="_795816192">
   <g id="_2209654012160">
    <g id="_2960595846752">
     <g>
      <path class="fil0" d="M0 0.12l0 9.54 0.17 0 0.05 0 6.23 0 0 -2.22 -4.23 0 0 -7.31 -2.22 0 0 -0.01zm1.95 0.32l0 7.09 -1.62 1.62 0 -1.03 0.59 0 0 -0.32 -0.59 0 0 -0.49 0.59 0 0 -0.32 -0.59 0 0 -0.49 0.59 0 0 -0.32 -0.59 0 0 -0.49 0.59 0 0 -0.32 -0.59 0 0 -0.49 0.59 0 0 -0.32 -0.59 0 0 -0.49 0.59 0 0 -0.32 -0.59 0 0 -0.49 0.59 0 0 -0.32 -0.59 0 0 -0.49 0.59 0 0 -0.32 -0.59 0 0 -0.49 0.59 0 0 -0.32 -0.59 0 0 -0.49 0.59 0 0 -0.32 -0.59 0 0 -0.49 1.62 0 0 0.44 0 0zm4.23 8.93l-5.63 0 1.62 -1.62 4.01 0 0 1.62 0 0z"/>
     </g>
    </g>
   </g>
  </g>
 </g>
</svg>
